<?xml version="1.0" encoding="utf-8"?>
<?xml-stylesheet type="text/xsl" href="rss1.xsl"?>
<rss version="2.0" xmlns:atom="http://www.w3.org/2005/Atom" xmlns:content="http://purl.org/rss/1.0/modules/content/" xmlns:dc="http://purl.org/dc/elements/1.1/" xmlns:media="http://search.yahoo.com/mrss/">
<channel>
 <title>Getty</title>
 <link>http://www.gettyimg.com/</link>
 <atom:link href="http://www.gettyimg.com/" rel="self" type="application/rss+xml" />

 
                <item>
                <title><![CDATA[【UPSCALED】Hans Zimmer &amp; Alan Walker - Time (Remix) [4K AI Upscale HEVC 10-bit | PCM 24/48 | DTS-HD MA 5.1 | TrueHD Dolby Atmos]]]></title>
                <link><![CDATA[https://sharemania.us/threads/hans-zimmer-alan-walker-time-remix-4k-ai-upscale-hevc-10-bit-pcm-24-48-dts-hd-ma-5-1-truehd-dolby-atmos.224224/]]></link>
                <description><![CDATA[<article>
<blockquote class="messageText SelectQuoteContainer ugc baseHtml">
<b><img src="https://images2.imgbox.com/77/fa/Y1RGF6SK_o.jpg" class="bbCodeImage LbImage" alt="[​IMG]" data-url="https://images2.imgbox.com/77/fa/Y1RGF6SK_o.jpg" style=""> <br>
<br>
Genre: <span style="color: rgb(0, 89, 179)">Electronic, Classical</span><br>
Style: <span style="color: rgb(0, 89, 179)">Electro House, Dance-pop</span><br>
Year: <span style="color: rgb(0, 89, 179)">2020</span><br>
Source: <span style="color: rgb(0, 89, 179)">Blu-ray, The World Of Hans Zimmer</span></b><br>
<br>
<b>Alan Olav Walker</b> (born 24 August 1997) is a British-born Norwegian DJ, YouTuber and record producer primarily known for the critically acclaimed single "Faded" (2015), which was certified platinum in 14 countries. He has also made several songs including "Sing Me to Sleep", "Alone", "Darkside", and "On My Way", all of which attracted millions of views on YouTube.<br>
<br>
In May 2020 he remixed "<b>Time</b>", composed by <b>Hans Zimmer</b>. Originally written in 2010 for Christopher Nolan's critically acclaimed film <i>Inception</i>, "Time" is a highly dramatic, string-led piece. Alan Walker's rework holds onto a number of elements from the original composition while adding a handful of new digital elements. He's kicked up the tempo a bit and added a bassline, transforming "Time" into a house track that still retains cinematic moments.<br>
<br>
Alan Walker ends the remix by taking the most iconic section from the original and remaking it with synths. This collision of generations is an exciting milestone for dance music, as it marks Hans Zimmer's first official foray into the dance music streaming world.<br>
<br>
<b>Release Info</b><br>
Remux from the Blu-ray release of "The World Of Hans Zimmer".<br>
The videotrack is upscaled to 4K with Topaz Video AI and encoded to HEVC 10-bit.<br>
The audiotracks are untouched.<br>
<br>
<div class="ToggleTriggerAnchor bbCodeSpoilerContainer">
<button type="button" class="button bbCodeSpoilerButton ToggleTrigger Tooltip JsOnly" data-target="> .SpoilerTarget"><span>Spoiler: <span class="SpoilerTitle">Media Info</span></span></button>
<div class="SpoilerTarget bbCodeSpoilerText">
<div class="bbCodeBlock bbCodeCode">
<div class="type">Code:</div>
<pre>General
Unique ID                      : 77133381564376217278328335947152200239 (0x3A075953421321A7E3D9EC763D37922F)
Complete name                  : Hans Zimmer &amp; Alan Walker - Time (Remix) 4K.mkv
Format                         : Matroska
Format version                 : Version 4 / Version 2
File size                      : 700 MiB
Duration                       : 3 min 34 s
Overall bit rate mode          : Variable
Overall bit rate               : 27.3 Mb/s
Frame rate                     : 24.000 FPS
Encoded date                   : 2023-07-05 23:19:45 UTC
Writing application            : mkvmerge v76.0 ('Celebration') 64-bit
Writing library                : libebml v1.4.4 + libmatroska v1.7.1

Video
ID                             : 1
Format                         : HEVC
Format/Info                    : High Efficiency Video Coding
Format profile                 : Main 10@L5@Main
Codec ID                       : V_MPEGH/ISO/HEVC
Duration                       : 3 min 34 s
Bit rate                       : 17.9 Mb/s
Width                          : 3 840 pixels
Height                         : 2 160 pixels
Display aspect ratio           : 16:9
Frame rate mode                : Constant
Frame rate                     : 24.000 FPS
Color space                    : YUV
Chroma subsampling             : 4:2:0
Bit depth                      : 10 bits
Bits/(Pixel*Frame)             : 0.090
Stream size                    : 459 MiB (66%)
Language                       : English
Default                        : Yes
Forced                         : No
Color range                    : Limited
Color primaries                : BT.709
Transfer characteristics       : BT.709
Matrix coefficients            : BT.709

Audio #1
ID                             : 2
Format                         : PCM
Format settings                : Little / Signed
Codec ID                       : A_PCM/INT/LIT
Duration                       : 3 min 34 s
Bit rate mode                  : Constant
Bit rate                       : 2 304 kb/s
Channel(s)                     : 2 channels
Sampling rate                  : 48.0 kHz
Frame rate                     : 25.000 FPS (1920 SPF)
Bit depth                      : 24 bits
Stream size                    : 58.9 MiB (8%)
Language                       : English
Default                        : No
Forced                         : No

Audio #2
ID                             : 3
Format                         : DTS XLL
Format/Info                    : Digital Theater Systems
Commercial name                : DTS-HD Master Audio
Codec ID                       : A_DTS
Duration                       : 3 min 34 s
Bit rate mode                  : Variable / Constant
Bit rate                       : 3 314 kb/s / 1 509 kb/s
Channel(s)                     : 6 channels
Channel layout                 : C L R Ls Rs LFE
Sampling rate                  : 48.0 kHz
Frame rate                     : 93.750 FPS (512 SPF)
Bit depth                      : 24 bits
Compression mode               : Lossless / Lossy
Stream size                    : 84.8 MiB (12%)
Language                       : English
Default                        : No
Forced                         : No

Audio #3
ID                             : 4
Format                         : MLP FBA 16-ch
Format/Info                    : Meridian Lossless Packing FBA with 16-channel presentation
Commercial name                : Dolby TrueHD with Dolby Atmos
Codec ID                       : A_TRUEHD
Duration                       : 3 min 34 s
Bit rate mode                  : Variable
Bit rate                       : 3 728 kb/s
Maximum bit rate               : 6 273 kb/s
Channel(s)                     : 8 channels
Channel layout                 : L R C LFE Ls Rs Lb Rb
Sampling rate                  : 48.0 kHz
Frame rate                     : 1 200.000 FPS (40 SPF)
Compression mode               : Lossless
Stream size                    : 95.4 MiB (14%)
Language                       : English
Default                        : Yes
Forced                         : No
Number of dynamic objects      : 15
Bed channel count              : 1 channel
Bed channel configuration      : LFE
</pre>
</div></div>
</div><br>
<div class="bbCodeBlock bbCodeVfcHH HiddenContent">
<div class="attribution type">Hidden Content:</div>
<blockquote>You must reply before you can see the hidden data contained here.</blockquote>
</div>
<div class="messageTextEndMarker">&nbsp;</div>
</blockquote>
</article>]]></description>
                <author><![CDATA[ADHDerby]]></author>
                </item>

                </channel></rss>